<svg width="38" height="38" viewBox="0 0 38 38" fill="none" xmlns="http://www.w3.org/2000/svg">
<path d="M19.4974 15.332C17.753 15.332 16.3295 16.7556 16.3295 18.5C16.3295 20.2444 17.753 21.668 19.4974 21.668C21.2418 21.668 22.6654 20.2444 22.6654 18.5C22.6654 16.7556 21.2418 15.332 19.4974 15.332ZM28.9989 18.5C28.9989 17.1881 29.0108 15.8881 28.9371 14.5786C28.8635 13.0576 28.5165 11.7077 27.4043 10.5954C26.2897 9.48078 24.9421 9.13617 23.4211 9.0625C22.1093 8.98882 20.8093 9.00071 19.4998 9.00071C18.188 9.00071 16.888 8.98882 15.5785 9.0625C14.0575 9.13617 12.7076 9.48316 11.5954 10.5954C10.4808 11.71 10.1362 13.0576 10.0625 14.5786C9.98882 15.8905 10.0007 17.1905 10.0007 18.5C10.0007 19.8095 9.98882 21.1119 10.0625 22.4214C10.1362 23.9424 10.4831 25.2923 11.5954 26.4046C12.71 27.5192 14.0575 27.8638 15.5785 27.9375C16.8904 28.0112 18.1903 27.9993 19.4998 27.9993C20.8117 27.9993 22.1117 28.0112 23.4211 27.9375C24.9421 27.8638 26.292 27.5168 27.4043 26.4046C28.5189 25.29 28.8635 23.9424 28.9371 22.4214C29.0132 21.1119 28.9989 19.8119 28.9989 18.5ZM19.4974 23.3744C16.8 23.3744 14.6231 21.1974 14.6231 18.5C14.6231 15.8026 16.8 13.6256 19.4974 13.6256C22.1948 13.6256 24.3718 15.8026 24.3718 18.5C24.3718 21.1974 22.1948 23.3744 19.4974 23.3744ZM24.5714 14.5643C23.9416 14.5643 23.433 14.0557 23.433 13.4259C23.433 12.7961 23.9416 12.2876 24.5714 12.2876C25.2012 12.2876 25.7098 12.7961 25.7098 13.4259C25.71 13.5755 25.6806 13.7236 25.6235 13.8618C25.5664 14 25.4825 14.1256 25.3768 14.2313C25.271 14.3371 25.1455 14.4209 25.0073 14.4781C24.8691 14.5352 24.721 14.5645 24.5714 14.5643Z" fill="#F5F5F5"/>
</svg>
