<svg width="38" height="38" viewBox="0 0 38 38" fill="none" xmlns="http://www.w3.org/2000/svg">
<path d="M27.2037 22.25L24.6637 21.96C24.365 21.9249 24.0623 21.958 23.7782 22.0567C23.4942 22.1554 23.2362 22.3173 23.0237 22.53L21.1837 24.37C18.3449 22.9262 16.0375 20.6188 14.5937 17.78L16.4437 15.93C16.8737 15.5 17.0837 14.9 17.0137 14.29L16.7237 11.77C16.667 11.2822 16.4329 10.8322 16.0659 10.5058C15.699 10.1795 15.2248 9.99942 14.7337 10H13.0037C11.8737 10 10.9337 10.94 11.0037 12.07C11.5337 20.61 18.3637 27.43 26.8937 27.96C28.0237 28.03 28.9637 27.09 28.9637 25.96V24.23C28.9737 23.22 28.2137 22.37 27.2037 22.25Z" fill="#F5F5F5"/>
</svg>
