<svg width="38" height="38" viewBox="0 0 38 38" fill="none" xmlns="http://www.w3.org/2000/svg">
<path d="M27.2097 10.1589C27.2097 10.1589 29.1523 9.37977 28.9904 11.272C28.9365 12.0511 28.4508 14.7781 28.0731 17.7278L26.778 26.4653C26.778 26.4653 26.6701 27.7453 25.6987 27.9679C24.7274 28.1905 23.2704 27.1888 23.0006 26.9662C22.7847 26.7992 18.9534 24.2948 17.6043 23.0705C17.2266 22.7365 16.7949 22.0687 17.6583 21.2895L23.3244 15.7243C23.9719 15.0564 24.6195 13.4981 21.9213 15.3903L14.3666 20.6774C14.3666 20.6774 13.5032 21.2339 11.8843 20.733L8.37671 19.62C8.37671 19.62 7.0816 18.7852 9.29408 17.9503C14.6904 15.3346 21.3278 12.6633 27.2097 10.1589Z" fill="#F5F5F5"/>
</svg>
